# xmcd
#
# Track frame offsets:
#	150
#	14741
#	32406
#	49712
#	67384
#	82617
#	98275
#	113136
#	130805
#
# Disc length: 1947 seconds
#
# Revision: 1
# Processed by: cddbd v1.5.2PL0 Copyright (c) Steve Scherf et al.
# Submitted via: audiograbber 1.83.01
#
DISCID=68079909
DTITLE=Dolly Parton - Best of Dolly Parton, Vol. 3
DYEAR=1987
DGENRE=Country
TTITLE0=Don't Call It Love
TTITLE1=Save The Last Dance For Me
TTITLE2=Real Love [With Kenny Rogers]
TTITLE3=We Had It All
TTITLE4=Tie Our Love (In A Double Knot)
TTITLE5=Think About Love
TTITLE6=Potential New Boyfriend
TTITLE7=Do I Ever Cross Your Mind
TTITLE8=Tennessee Homesick Blues
EXTD=
EXTT0=
EXTT1=
EXTT2=
EXTT3=
EXTT4=
EXTT5=
EXTT6=
EXTT7=
EXTT8=
PLAYORDER=
